<?xml version="1.0" encoding="utf-8"?>
<!-- Generator: Adobe Illustrator 22.0.0, SVG Export Plug-In . SVG Version: 6.00 Build 0)  -->
<svg version="1.1" id="Layer_1" xmlns="http://www.w3.org/2000/svg" xmlns:xlink="http://www.w3.org/1999/xlink" x="0px" y="0px"
	 viewBox="0 0 24 24" style="enable-background:new 0 0 24 24;" xml:space="preserve">
<style type="text/css">
	.st0{fill:#FFFFFF;}
</style>
<g>
	<path class="st0" d="M9,13H6c-1.1,0-2,0.9-2,2v3c0,1.1,0.9,2,2,2h3c1.1,0,2-0.9,2-2v-3C11,13.9,10.1,13,9,13z M9.5,18
		c0,0.3-0.2,0.5-0.5,0.5H6c-0.3,0-0.5-0.2-0.5-0.5v-3c0-0.3,0.2-0.5,0.5-0.5h3c0.3,0,0.5,0.2,0.5,0.5V18z"/>
	<path class="st0" d="M9,4H6C4.9,4,4,4.9,4,6v3c0,1.1,0.9,2,2,2h3c1.1,0,2-0.9,2-2V6C11,4.9,10.1,4,9,4z M9.5,9
		c0,0.3-0.2,0.5-0.5,0.5H6C5.7,9.5,5.5,9.3,5.5,9V6c0-0.3,0.2-0.5,0.5-0.5h3c0.3,0,0.5,0.2,0.5,0.5V9z"/>
	<path class="st0" d="M18,13h-3c-1.1,0-2,0.9-2,2v3c0,1.1,0.9,2,2,2h3c1.1,0,2-0.9,2-2v-3C20,13.9,19.1,13,18,13z M18.5,18
		c0,0.3-0.2,0.5-0.5,0.5h-3c-0.3,0-0.5-0.2-0.5-0.5v-3c0-0.3,0.2-0.5,0.5-0.5h3c0.3,0,0.5,0.2,0.5,0.5V18z"/>
	<path class="st0" d="M15.6,8.4v2.1c0,0.4,0.3,0.8,0.8,0.8c0.4,0,0.8-0.3,0.8-0.8V8.4h2.1C19.7,8.4,20,8,20,7.6s-0.3-0.8-0.8-0.8
		h-2.1V4.7c0-0.4-0.3-0.8-0.8-0.8c-0.4,0-0.8,0.3-0.8,0.8v2.1h-2.1c-0.4,0-0.8,0.3-0.8,0.8s0.3,0.8,0.8,0.8H15.6z"/>
</g>
</svg>
