<?xml version="1.0" encoding="utf-8"?>
<!-- Generator: Adobe Illustrator 23.0.0, SVG Export Plug-In . SVG Version: 6.00 Build 0)  -->
<svg version="1.1" id="Layer_1" xmlns="http://www.w3.org/2000/svg" xmlns:xlink="http://www.w3.org/1999/xlink" x="0px" y="0px"
	 viewBox="0 0 24 24" style="enable-background:new 0 0 24 24;" xml:space="preserve">
<style type="text/css">
	.st0{fill:#FFFFFF;}
</style>
<path class="st0" d="M12,2.3c-5.4,0-9.8,4.4-9.8,9.8s4.4,9.8,9.8,9.8s9.8-4.4,9.8-9.8S17.4,2.3,12,2.3z M9.5,15.5h4.9
	c-0.5,1.7-1.3,3.2-2.5,4.5C10.8,18.7,10,17.1,9.5,15.5z M9.2,14c-0.1-0.7-0.1-1.3-0.1-2c0-0.6,0-1.3,0.1-1.9h5.5
	c0.1,0.7,0.1,1.3,0.1,2c0,0.6,0,1.3-0.1,1.9H9.2z M3.8,12c0-0.7,0.1-1.3,0.2-2h3.7c-0.1,0.6-0.1,1.3-0.1,1.9c0,0.7,0,1.3,0.1,2H4
	C3.8,13.3,3.8,12.7,3.8,12z M14.5,8.5H9.5C10,6.9,10.8,5.3,12,4.1C13.2,5.3,14,6.9,14.5,8.5z M16.3,10H20c0.2,0.6,0.2,1.3,0.2,2
	s-0.1,1.3-0.2,2h-3.7c0.1-0.6,0.1-1.3,0.1-1.9C16.4,11.4,16.3,10.7,16.3,10z M19.5,8.5H16c-0.4-1.7-1.1-3.2-2.2-4.6
	C16.4,4.5,18.4,6.3,19.5,8.5z M10.2,4C9.1,5.3,8.4,6.9,8,8.5H4.5C5.6,6.3,7.6,4.5,10.2,4z M4.5,15.5H8c0.4,1.7,1.1,3.2,2.2,4.6
	C7.6,19.5,5.6,17.7,4.5,15.5z M13.8,20c1-1.4,1.8-2.9,2.2-4.6h3.5C18.4,17.7,16.4,19.5,13.8,20z"/>
</svg>
